<svg version="1.1" viewBox="0 0 1200 1200" xmlns="http://www.w3.org/2000/svg">
 <title>tickets</title>
 <path d="m938.26 217.16c-2.3318-0.20032-4.7766 0.0171-7.1461 0.78776l-779.6 253.38c-9.4495 3.0826-14.674 13.198-11.591 22.676l50.304 154.79c0 0.3169-0.0563 0.6122-0.0563 0.9003v343.74c0 9.9392 8.0667 18.006 18.006 18.006h819.78c9.9393 0 18.006-8.0667 18.006-18.006v-343.74c0-9.9393-8.0667-18.006-18.006-18.006h-141.01l161.55-52.499c9.4494-3.0826 14.674-13.254 11.591-22.732l-106.23-326.92c-2.3119-7.0871-8.591-11.778-15.586-12.379zm-13.111 40.626 95.15 292.71-249.83 81.196-0.0563-0.0562h-547.83l-42.82-131.67 94.925-30.835 36.293 110.34c2.5064 7.5769 9.5287 12.379 17.106 12.379 1.8726 0 3.8105-0.2953 5.6831-0.9003 9.4495-3.1114 14.534-13.283 11.423-22.732l-36.237-110.17zm-42.877 66.509c-2.3318-0.20033-4.7203 0.0734-7.0898 0.84402l-469.45 152.54c-9.4495 3.0826-14.674 13.198-11.591 22.676 2.4776 7.6057 9.5287 12.435 17.106 12.435 1.8438 0 3.7268-0.2953 5.5706-0.90029l469.45-152.54c9.4495-3.0826 14.674-13.198 11.591-22.676-2.312-7.0871-8.5911-11.778-15.586-12.379zm21.213 65.384c-2.3318-0.19807-4.7765 0.0734-7.1461 0.84403l-88.848 28.866c-9.4495 3.0826-14.618 13.198-11.535 22.676 2.4776 7.6057 9.5287 12.435 17.106 12.435 1.8438 0 3.7268-0.23903 5.5706-0.84404h0.0562l88.848-28.866c9.4496-3.0826 14.618-13.254 11.535-22.732-2.3119-7.1087-8.591-11.785-15.586-12.379zm-305.14 99.145c-2.3318-0.19806-4.7202 0.0734-7.0898 0.84404l-164.3 53.399c-9.4495 3.0826-14.618 13.198-11.535 22.676 2.4776 7.6057 9.5287 12.435 17.106 12.435 1.8438 0 3.7268-0.23903 5.5706-0.84403l164.3-53.399c9.4495-3.0826 14.618-13.254 11.535-22.732-2.312-7.1088-8.5911-11.785-15.586-12.379zm342.17 14.855c-2.3317-0.19806-4.7202 0.0734-7.0898 0.84403l-28.134 9.1155c-9.4495 3.0826-14.618 13.254-11.535 22.733 2.4776 7.6057 9.5287 12.435 17.106 12.435 1.8438 0 3.7268-0.29529 5.5706-0.90029l28.134-9.1155c9.4496-3.0826 14.618-13.254 11.535-22.732-2.3119-7.1087-8.591-11.785-15.586-12.379zm-90.874 29.541c-2.3318-0.19806-4.7202 0.0734-7.0898 0.84404l-28.134 9.1155c-9.4495 3.0826-14.618 13.254-11.535 22.732 2.4776 7.6057 9.5287 12.435 17.106 12.435 1.8438 0 3.7268-0.2953 5.5706-0.9003l28.134-9.1155c9.4495-3.0826 14.618-13.254 11.535-22.732-2.312-7.1088-8.5911-11.785-15.586-12.379zm-623.4 134.43h99.708v200.6c0 9.9393 8.0667 18.006 18.006 18.006 9.9393 0 18.006-8.0667 18.006-18.006v-200.6h648.04v307.79h-783.76zm221.75 48.616c-9.9393 0-18.006 8.0667-18.006 18.006 0 9.9393 8.0666 18.006 18.006 18.006h493.59c9.9393 0 18.006-8.0667 18.006-18.006 0-9.9393-8.0667-18.006-18.006-18.006zm0 68.76c-9.9393 0-18.006 8.0667-18.006 18.006 0 9.9393 8.0666 18.006 18.006 18.006h172.74c9.9393 0 18.006-8.0666 18.006-18.006 0-9.9393-8.0667-18.006-18.006-18.006zm400.18 0c-9.9393 0-18.006 8.0667-18.006 18.006 0 9.9393 8.0667 18.006 18.006 18.006h93.406c9.9393 0 18.006-8.0666 18.006-18.006 0-9.9393-8.0667-18.006-18.006-18.006zm-31.735 119.91c-9.9393 0-18.006 8.0666-18.006 18.006 0 9.9394 8.0667 18.006 18.006 18.006h29.541c9.9393 0 18.006-8.0666 18.006-18.006 0-9.9392-8.0667-18.006-18.006-18.006zm95.6 0c-9.9393 0-18.006 8.0666-18.006 18.006 0 9.9394 8.0667 18.006 18.006 18.006h29.541c9.9393 0 18.006-8.0666 18.006-18.006 0-9.9392-8.0667-18.006-18.006-18.006zm-568.09 5.2892c-9.9393 0-18.006 8.0666-18.006 18.006v7.0336c0 9.9393 8.0667 18.006 18.006 18.006 9.9393 0 18.006-8.0667 18.006-18.006v-7.0336c0-9.9393-8.0666-18.006-18.006-18.006z" style="stroke-width:28.81"/>
</svg>
