<svg xmlns="http://www.w3.org/2000/svg" xmlns:xlink="http://www.w3.org/1999/xlink" width="159.33" height="228.67" viewBox="0 0 159.33 228.67"><defs><style>.a{clip-path:url(#b);}.b{fill:#31ade0;}.c{fill:#0a5481;}</style><clipPath id="b"><rect width="159.33" height="228.67"/></clipPath></defs><g id="a" class="a"><g transform="translate(-397.145 -277.45)"><path class="b" d="M440.4,376l28.744-50.407.417-.694.417.694,38.048,66.7a45.2,45.2,0,0,1,4.4,10.739C488.4,417.567,464.377,378.593,440.4,376Z" transform="translate(-17.618 0)"/><path class="c" d="M427.9,542.014a44.407,44.407,0,0,0,34.53,17.08h.833A44.332,44.332,0,0,0,507.144,516C480.714,497.717,454.33,546.226,427.9,542.014Z" transform="translate(-10.904 -100.424)"/><path class="b" d="M486.844,542.014a44.407,44.407,0,0,1-34.53,17.08h-.833A44.332,44.332,0,0,1,407.6,516C434.076,497.717,460.46,546.226,486.844,542.014Z" transform="translate(0 -100.424)"/><path class="c" d="M482.823,376l-28.744-50.407-.417-.694-.417.694-38.048,66.7a45.205,45.205,0,0,0-4.4,10.739C434.823,417.567,458.8,378.593,482.823,376Z" transform="translate(-1.719 0)"/></g></g></svg>