<svg xmlns="http://www.w3.org/2000/svg" xmlns:xlink="http://www.w3.org/1999/xlink" width="1154.64" height="228.67" viewBox="0 0 1154.64 228.67"><defs><style>.a{clip-path:url(#b);}.b{fill:#31ade0;}.c,.d{fill:#0a5481;}.d,.e{font-size:115px;font-family:HelveticaNeue, Helvetica Neue;}.e{fill:#fff;}</style><clipPath id="b"><rect width="1154.64" height="228.67"/></clipPath></defs><g id="a" class="a"><g transform="translate(-343.691 -311.31)"><path class="b" d="M440.4,401.87l43.3-75.925.627-1.046.628,1.046L542.26,426.412a68.084,68.084,0,0,1,6.623,16.175C512.7,464.479,476.515,405.775,440.4,401.87Z" transform="translate(-9.932 0)"/><path class="c" d="M427.9,557.277A66.887,66.887,0,0,0,479.911,583h1.255a66.774,66.774,0,0,0,66.094-64.909C507.45,490.555,467.71,563.621,427.9,557.277Z" transform="translate(-6.147 -56.614)"/><path class="b" d="M526.96,557.277A66.887,66.887,0,0,1,474.949,583h-1.255A66.774,66.774,0,0,1,407.6,518.094C447.48,490.555,487.22,563.621,526.96,557.277Z" transform="translate(0 -56.614)"/><path class="c" d="M519.284,401.87l-43.3-75.925-.627-1.046-.627,1.046-57.31,100.466a68.09,68.09,0,0,0-6.623,16.175C446.984,464.479,483.1,405.775,519.284,401.87Z" transform="translate(-0.969 0)"/></g><text class="d" transform="translate(857 156.59)"><tspan x="0" y="0">2030</tspan></text><text class="e" transform="translate(238 156.59)"><tspan x="0" y="0">Pro Agenda</tspan></text></g></svg>